<?xml version="1.0" encoding="UTF-8" standalone="no"?>
<svg
   xmlns:dc="http://purl.org/dc/elements/1.1/"
   xmlns:cc="http://creativecommons.org/ns#"
   xmlns:rdf="http://www.w3.org/1999/02/22-rdf-syntax-ns#"
   xmlns:svg="http://www.w3.org/2000/svg"
   xmlns="http://www.w3.org/2000/svg"
   xmlns:sodipodi="http://sodipodi.sourceforge.net/DTD/sodipodi-0.dtd"
   xmlns:inkscape="http://www.inkscape.org/namespaces/inkscape"
   inkscape:version="1.0 (4035a4f, 2020-05-01)"
   sodipodi:docname="task.svg"
   id="svg18"
   xml:space="preserve"
   enable-background="new 0 0 1000 1000"
   viewBox="0 0 1000 1000"
   y="0px"
   x="0px"
   version="1.1"><defs
   id="defs22" /><sodipodi:namedview
   inkscape:current-layer="g16"
   inkscape:window-maximized="0"
   inkscape:window-y="23"
   inkscape:window-x="0"
   inkscape:cy="500"
   inkscape:cx="500"
   inkscape:zoom="0.79438411"
   showgrid="false"
   id="namedview20"
   inkscape:window-height="1004"
   inkscape:window-width="1763"
   inkscape:pageshadow="2"
   inkscape:pageopacity="0"
   guidetolerance="10"
   gridtolerance="10"
   objecttolerance="10"
   borderopacity="1"
   bordercolor="#666666"
   pagecolor="#ffffff" />
<metadata
   id="metadata10"> Svg Vector Icons : http://www.onlinewebfonts.com/icon <rdf:RDF><cc:Work
     rdf:about=""><dc:format>image/svg+xml</dc:format><dc:type
       rdf:resource="http://purl.org/dc/dcmitype/StillImage" /><dc:title></dc:title></cc:Work></rdf:RDF></metadata>
<g id="g16"><path
     id="path12"
     d="M 500,10 C 292.5,10 134.37069,174.5 134.37069,377.5 134.37069,580.5 439.2,990 500,990 558.8,990 868.14698,580.5 868.14698,377.5 868.14698,174.5 707.5,10 500,10 Z m 0,612.5 c -138.3,0 -250.4,-109.7 -250.4,-245 0,-135.3 112.1,-245 250.4,-245 138.3,0 250.4,109.7 250.4,245 0,135.3 -112.1,245 -250.4,245 z" /><path
     id="path14"
     d="M500,255c69.2,0,125.2,54.8,125.2,122.5c0,67.7-56.1,122.5-125.2,122.5c-69.2,0-125.2-54.8-125.2-122.5C374.8,309.8,430.8,255,500,255z" /></g>
</svg>
